HIERARCHY
ROOT newVegas:Hips
{
	OFFSET 0.000000 96.479958 0.000000
	CHANNELS 6 Xposition Yposition Zposition Xrotation Yrotation Zrotation
	JOINT newVegas:Pelvis
	{
		OFFSET 0.000000 0.000000 0.000000
		CHANNELS 3 Xrotation Yrotation Zrotation
		JOINT newVegas:LeftUpLeg
		{
			OFFSET 18.735201 -5.666702 -4.541200
			CHANNELS 3 Xrotation Yrotation Zrotation
			JOINT newVegas:LeftLeg
			{
				OFFSET -0.021200 -31.938179 0.493100
				CHANNELS 3 Xrotation Yrotation Zrotation
				JOINT newVegas:LeftFoot
				{
					OFFSET 0.021200 -31.938179 -4.336299
					CHANNELS 3 Xrotation Yrotation Zrotation
					JOINT newVegas:LeftToeBase
					{
						OFFSET 0.943001 -26.722000 15.023500
						CHANNELS 3 Xrotation Yrotation Zrotation
						End Site
						{
							OFFSET 0.000000 30.670183 0.000000
						}
					}
				}
				JOINT newVegas:Left_PantLeg
				{
					OFFSET 0.663870 -9.044666 -1.108900
					CHANNELS 3 Xrotation Yrotation Zrotation
					End Site
					{
						OFFSET 1.415995 20.635357 0.000000
					}
				}
			}
		}
		JOINT newVegas:RightUpLeg
		{
			OFFSET -18.735201 -5.666702 -4.541200
			CHANNELS 3 Xrotation Yrotation Zrotation
			JOINT newVegas:RightLeg
			{
				OFFSET 0.018946 -31.938133 0.493100
				CHANNELS 3 Xrotation Yrotation Zrotation
				JOINT newVegas:RightFoot
				{
					OFFSET -0.018946 -31.938126 -4.336299
					CHANNELS 3 Xrotation Yrotation Zrotation
					JOINT newVegas:RightToeBase
					{
						OFFSET -0.943001 -26.722004 15.023500
						CHANNELS 3 Xrotation Yrotation Zrotation
						End Site
						{
							OFFSET 0.000000 30.670187 0.000000
						}
					}
				}
				JOINT newVegas:Right_PantLeg
				{
					OFFSET -0.661674 -9.044716 -1.108900
					CHANNELS 3 Xrotation Yrotation Zrotation
					End Site
					{
						OFFSET -1.415958 20.635269 0.000000
					}
				}
			}
		}
	}
	JOINT newVegas:Spine
	{
		OFFSET 0.000000 10.199997 -0.299500
		CHANNELS 3 Xrotation Yrotation Zrotation
		JOINT newVegas:Spine1
		{
			OFFSET 0.000000 11.900002 -1.516600
			CHANNELS 3 Xrotation Yrotation Zrotation
			JOINT newVegas:Spine2
			{
				OFFSET 0.000000 13.600006 -2.842500
				CHANNELS 3 Xrotation Yrotation Zrotation
				JOINT newVegas:Neck
				{
					OFFSET 0.000000 9.624100 -2.890100
					CHANNELS 3 Xrotation Yrotation Zrotation
					JOINT newVegas:Head
					{
						OFFSET 0.000000 14.068802 -1.351900
						CHANNELS 3 Xrotation Yrotation Zrotation
						JOINT newVegas:Hair_Back
						{
							OFFSET 0.000000 3.231903 -17.524799
							CHANNELS 3 Xrotation Yrotation Zrotation
							End Site
							{
								OFFSET 0.000000 19.849884 0.000000
							}
						}
						JOINT newVegas:Hair_Front
						{
							OFFSET 0.000000 31.260406 4.573800
							CHANNELS 3 Xrotation Yrotation Zrotation
							JOINT newVegas:Hair_Front1
							{
								OFFSET 0.000000 2.284103 11.993300
								CHANNELS 3 Xrotation Yrotation Zrotation
								JOINT newVegas:Hair_Front2
								{
									OFFSET 0.000000 2.284103 11.993300
									CHANNELS 3 Xrotation Yrotation Zrotation
									End Site
									{
										OFFSET 0.000000 12.208862 0.000000
									}
								}
							}
						}
						JOINT newVegas:Jowel
						{
							OFFSET 0.000000 -7.458206 6.864100
							CHANNELS 3 Xrotation Yrotation Zrotation
							End Site
							{
								OFFSET 0.000000 19.849884 0.000000
							}
						}
					}
				}
				JOINT newVegas:LeftShoulder
				{
					OFFSET 15.263000 10.923401 -0.547700
					CHANNELS 3 Xrotation Yrotation Zrotation
					JOINT newVegas:LeftArm
					{
						OFFSET 25.438599 -2.830597 -13.032500
						CHANNELS 3 Xrotation Yrotation Zrotation
						JOINT newVegas:LeftForeArm
						{
							OFFSET 29.960503 0.000000 0.000000
							CHANNELS 3 Xrotation Yrotation Zrotation
							JOINT newVegas:LeftHand
							{
								OFFSET 27.849251 0.000000 0.000000
								CHANNELS 3 Xrotation Yrotation Zrotation
								JOINT newVegas:LeftHandThumb1
								{
									OFFSET 4.487587 -3.305161 6.305391
									CHANNELS 3 Xrotation Yrotation Zrotation
									JOINT newVegas:LeftHandThumb2
									{
										OFFSET 5.480453 -3.164139 3.164143
										CHANNELS 3 Xrotation Yrotation Zrotation
										JOINT newVegas:LeftHandThumb3
										{
											OFFSET 5.159721 -2.978973 2.978967
											CHANNELS 3 Xrotation Yrotation Zrotation
											End Site
											{
												OFFSET 2.494507 5.926697 1.738678
											}
										}
									}
								}
								JOINT newVegas:LeftHandIndex1
								{
									OFFSET 18.578728 -0.527832 5.208049
									CHANNELS 3 Xrotation Yrotation Zrotation
									JOINT newVegas:LeftHandIndex2
									{
										OFFSET 3.192009 0.000000 0.000000
										CHANNELS 3 Xrotation Yrotation Zrotation
										JOINT newVegas:LeftHandIndex3
										{
											OFFSET 3.835129 0.000000 0.000000
											CHANNELS 3 Xrotation Yrotation Zrotation
											End Site
											{
												OFFSET -0.034599 3.816971 0.371180
											}
										}
									}
								}
								JOINT newVegas:LeftHandMiddle1
								{
									OFFSET 18.476105 0.000000 0.000000
									CHANNELS 3 Xrotation Yrotation Zrotation
									JOINT newVegas:LeftHandMiddle2
									{
										OFFSET 3.324875 0.000000 0.000000
										CHANNELS 3 Xrotation Yrotation Zrotation
										JOINT newVegas:LeftHandMiddle3
										{
											OFFSET 4.596550 0.000000 0.000000
											CHANNELS 3 Xrotation Yrotation Zrotation
											End Site
											{
												OFFSET 0.057701 4.578827 0.399218
											}
										}
									}
								}
								JOINT newVegas:LeftHandRing1
								{
									OFFSET 17.732719 0.121887 -4.201567
									CHANNELS 3 Xrotation Yrotation Zrotation
									JOINT newVegas:LeftHandRing2
									{
										OFFSET 2.733170 0.000000 0.000000
										CHANNELS 3 Xrotation Yrotation Zrotation
										JOINT newVegas:LeftHandRing3
										{
											OFFSET 3.178268 0.000000 0.000000
											CHANNELS 3 Xrotation Yrotation Zrotation
											End Site
											{
												OFFSET 0.119102 3.170624 0.185394
											}
										}
									}
								}
								JOINT newVegas:LeftHandPinky1
								{
									OFFSET 15.989624 -0.606689 -7.535461
									CHANNELS 3 Xrotation Yrotation Zrotation
									JOINT newVegas:LeftHandPinky2
									{
										OFFSET 2.538986 0.000000 0.000000
										CHANNELS 3 Xrotation Yrotation Zrotation
										JOINT newVegas:LeftHandPinky3
										{
											OFFSET 2.593102 0.000000 0.000000
											CHANNELS 3 Xrotation Yrotation Zrotation
											End Site
											{
												OFFSET -0.150902 2.584198 0.152708
											}
										}
									}
								}
							}
							JOINT newVegas:Left_Sleeve
							{
								OFFSET 0.267448 -0.649796 0.577675
								CHANNELS 3 Xrotation Yrotation Zrotation
								End Site
								{
									OFFSET 0.000000 15.991241 0.000000
								}
							}
							JOINT newVegas:Left_CapeC
							{
								OFFSET 15.715958 -8.608795 -6.935905
								CHANNELS 3 Xrotation Yrotation Zrotation
								JOINT newVegas:Left_CapeC1
								{
									OFFSET 0.000000 -8.688499 0.000000
									CHANNELS 3 Xrotation Yrotation Zrotation
									End Site
									{
										OFFSET 0.000000 8.688499 0.000000
									}
								}
							}
						}
						JOINT newVegas:Left_CapeB
						{
							OFFSET 26.118385 -8.608795 -7.079235
							CHANNELS 3 Xrotation Yrotation Zrotation
							JOINT newVegas:Left_CapeB1
							{
								OFFSET 0.000000 -8.688499 0.000000
								CHANNELS 3 Xrotation Yrotation Zrotation
								End Site
								{
									OFFSET 0.000000 8.688499 0.000000
								}
							}
						}
						JOINT newVegas:Left_CapeA
						{
							OFFSET 5.115639 -8.608795 -10.395809
							CHANNELS 3 Xrotation Yrotation Zrotation
							JOINT newVegas:Left_CapeA1
							{
								OFFSET 0.000000 -8.688499 0.000000
								CHANNELS 3 Xrotation Yrotation Zrotation
								End Site
								{
									OFFSET 0.000000 8.688499 0.000000
								}
							}
						}
					}
				}
				JOINT newVegas:RightShoulder
				{
					OFFSET -15.263000 10.923401 -0.547700
					CHANNELS 3 Xrotation Yrotation Zrotation
					JOINT newVegas:RightArm
					{
						OFFSET -25.438599 -2.830597 -13.032500
						CHANNELS 3 Xrotation Yrotation Zrotation
						JOINT newVegas:RightForeArm
						{
							OFFSET -29.960503 0.000000 0.000000
							CHANNELS 3 Xrotation Yrotation Zrotation
							JOINT newVegas:RightHand
							{
								OFFSET -27.849251 0.000000 0.000000
								CHANNELS 3 Xrotation Yrotation Zrotation
								JOINT newVegas:RightHandThumb1
								{
									OFFSET -4.487587 -3.305161 6.305391
									CHANNELS 3 Xrotation Yrotation Zrotation
									JOINT newVegas:RightHandThumb2
									{
										OFFSET -5.480453 -3.164139 3.164143
										CHANNELS 3 Xrotation Yrotation Zrotation
										JOINT newVegas:RightHandThumb3
										{
											OFFSET -5.159721 -2.978973 2.978967
											CHANNELS 3 Xrotation Yrotation Zrotation
											End Site
											{
												OFFSET -2.494507 5.926697 1.738678
											}
										}
									}
								}
								JOINT newVegas:RightHandIndex1
								{
									OFFSET -18.578728 -0.527832 5.208049
									CHANNELS 3 Xrotation Yrotation Zrotation
									JOINT newVegas:RightHandIndex2
									{
										OFFSET -3.192009 0.000000 0.000000
										CHANNELS 3 Xrotation Yrotation Zrotation
										JOINT newVegas:RightHandIndex3
										{
											OFFSET -3.835129 0.000000 0.000000
											CHANNELS 3 Xrotation Yrotation Zrotation
											End Site
											{
												OFFSET 0.034599 3.816971 0.371180
											}
										}
									}
								}
								JOINT newVegas:RightHandMiddle1
								{
									OFFSET -18.476105 0.000000 0.000000
									CHANNELS 3 Xrotation Yrotation Zrotation
									JOINT newVegas:RightHandMiddle2
									{
										OFFSET -3.324875 0.000000 0.000000
										CHANNELS 3 Xrotation Yrotation Zrotation
										JOINT newVegas:RightHandMiddle3
										{
											OFFSET -4.596550 0.000000 0.000000
											CHANNELS 3 Xrotation Yrotation Zrotation
											End Site
											{
												OFFSET -0.057701 4.578827 0.399218
											}
										}
									}
								}
								JOINT newVegas:RightHandRing1
								{
									OFFSET -17.732719 0.121887 -4.201567
									CHANNELS 3 Xrotation Yrotation Zrotation
									JOINT newVegas:RightHandRing2
									{
										OFFSET -2.733170 0.000000 0.000000
										CHANNELS 3 Xrotation Yrotation Zrotation
										JOINT newVegas:RightHandRing3
										{
											OFFSET -3.178268 0.000000 0.000000
											CHANNELS 3 Xrotation Yrotation Zrotation
											End Site
											{
												OFFSET -0.119102 3.170624 0.185394
											}
										}
									}
								}
								JOINT newVegas:RightHandPinky1
								{
									OFFSET -15.989624 -0.606689 -7.535461
									CHANNELS 3 Xrotation Yrotation Zrotation
									JOINT newVegas:RightHandPinky2
									{
										OFFSET -2.538986 0.000000 0.000000
										CHANNELS 3 Xrotation Yrotation Zrotation
										JOINT newVegas:RightHandPinky3
										{
											OFFSET -2.593102 0.000000 0.000000
											CHANNELS 3 Xrotation Yrotation Zrotation
											End Site
											{
												OFFSET 0.150902 2.584198 0.152708
											}
										}
									}
								}
							}
							JOINT newVegas:Right_CapeC
							{
								OFFSET -15.715958 -8.608795 -6.935905
								CHANNELS 3 Xrotation Yrotation Zrotation
								JOINT newVegas:Right_CapeC1
								{
									OFFSET 0.000000 -8.688499 0.000000
									CHANNELS 3 Xrotation Yrotation Zrotation
									End Site
									{
										OFFSET 0.000000 8.688499 0.000000
									}
								}
							}
							JOINT newVegas:Right_Sleeve
							{
								OFFSET -0.267448 -0.649994 0.577675
								CHANNELS 3 Xrotation Yrotation Zrotation
								End Site
								{
									OFFSET 0.000000 15.991302 0.000000
								}
							}
						}
						JOINT newVegas:Right_CapeA
						{
							OFFSET -5.115540 -8.608795 -10.395824
							CHANNELS 3 Xrotation Yrotation Zrotation
							JOINT newVegas:Right_CapeA1
							{
								OFFSET 0.000000 -8.688499 0.000000
								CHANNELS 3 Xrotation Yrotation Zrotation
								End Site
								{
									OFFSET 0.000000 8.688499 0.000000
								}
							}
						}
						JOINT newVegas:Right_CapeB
						{
							OFFSET -26.118187 -8.608795 -7.079266
							CHANNELS 3 Xrotation Yrotation Zrotation
							JOINT newVegas:Right_CapeB1
							{
								OFFSET 0.000000 -8.688499 0.000000
								CHANNELS 3 Xrotation Yrotation Zrotation
								End Site
								{
									OFFSET 0.000000 8.688499 0.000000
								}
							}
						}
					}
				}
				JOINT newVegas:Left_Collar
				{
					OFFSET 18.625099 8.655502 8.828100
					CHANNELS 3 Xrotation Yrotation Zrotation
					JOINT newVegas:Left_Collar1
					{
						OFFSET 14.783401 10.540405 -1.259500
						CHANNELS 3 Xrotation Yrotation Zrotation
						End Site
						{
							OFFSET 0.000000 18.199875 0.000000
						}
					}
				}
				JOINT newVegas:Collar_Back
				{
					OFFSET 0.000000 15.630707 -20.132601
					CHANNELS 3 Xrotation Yrotation Zrotation
					End Site
					{
						OFFSET 0.000000 22.523010 0.000000
					}
				}
				JOINT newVegas:Left_Peck
				{
					OFFSET 17.239599 -5.132599 25.482599
					CHANNELS 3 Xrotation Yrotation Zrotation
					End Site
					{
						OFFSET 0.000000 22.523010 0.000000
					}
				}
				JOINT newVegas:Right_Peck
				{
					OFFSET -17.239599 -5.132202 25.482599
					CHANNELS 3 Xrotation Yrotation Zrotation
					End Site
					{
						OFFSET 0.000000 22.523010 0.000000
					}
				}
				JOINT newVegas:Right_Collar
				{
					OFFSET -18.625099 8.655792 8.828100
					CHANNELS 3 Xrotation Yrotation Zrotation
					JOINT newVegas:Right_Collar1
					{
						OFFSET -14.783401 10.539993 -1.259500
						CHANNELS 3 Xrotation Yrotation Zrotation
						End Site
						{
							OFFSET 0.000000 18.199631 0.000000
						}
					}
				}
			}
		}
		JOINT newVegas:Belly
		{
			OFFSET 0.000000 -6.540398 9.014299
			CHANNELS 3 Xrotation Yrotation Zrotation
			End Site
			{
				OFFSET 0.000000 11.566666 0.000000
			}
		}
	}
	JOINT newVegas:ElvisFacialAnim_Joint
	{
		OFFSET 1.000000 -95.330101 -8.825800
		CHANNELS 3 Xrotation Yrotation Zrotation
		End Site
		{
			OFFSET 0.000000 35.315800 0.000000
		}
	}
}
MOTION
Frames: 4
Frame Time: 0.016667
0.842378 56.678551 -3.666064 0.287695 -174.906692 -8.598437 -0.000000 -0.000000 0.000000 -91.201276 -23.994067 14.024407 124.407169 1.253502 2.318505 -27.471127 5.444582 -17.239599 -0.000000 0.000000 0.000000 0.000000 -0.000001 0.000000 -58.692758 17.340594 -29.500970 109.244689 5.909329 -0.114412 -28.903513 -10.560050 31.060654 0.000000 0.000000 0.000000 -0.000002 0.000000 -0.000002 4.016811 3.140495 -2.598127 8.138435 6.853472 -4.615301 8.138446 6.853468 -4.615304 -0.483327 5.708645 1.191353 -0.483349 5.708627 1.191361 -0.000001 -0.000002 0.000001 -0.483188 5.708641 1.191348 -0.483419 5.708634 1.191369 -0.000001 0.000003 -0.000001 -0.000001 -0.000002 0.000001 0.991952 -15.521557 -11.873516 2.947335 -1.004908 -32.103778 39.921923 -32.872570 -2.089477 12.741835 10.294086 2.732615 -10.171825 -9.655296 9.007721 2.321124 6.714512 2.170911 -0.000001 0.000001 -0.000001 -0.823918 -6.584367 -6.418257 -0.126834 0.207670 -21.714392 0.000001 -0.000000 -0.000001 1.294494 -1.113044 -9.321271 -0.178456 -0.773444 -14.430107 -0.000003 -0.000001 0.000003 -0.565334 2.847718 -6.302109 -0.505472 -2.597489 -30.199504 -0.000002 -0.000004 0.000004 -0.248813 5.894618 -1.054396 -0.699237 -5.770493 -39.699300 -0.000001 -0.000007 -0.000000 0.000001 0.000000 -0.000000 0.000001 0.000000 -0.000000 -0.000000 0.000000 -0.000000 0.000000 -0.000001 -0.000000 0.000000 0.000001 -0.000002 0.000000 -0.000001 -0.000000 0.000001 -0.000000 0.000000 3.297401 -18.314889 12.160844 12.768042 -13.236291 60.187067 30.213116 39.380149 -4.024318 19.052430 -1.510650 11.776129 -7.035200 1.739450 -10.279228 -0.642368 -0.093881 -1.289324 -0.000004 -0.000003 -0.000001 -3.340355 2.507664 5.478414 0.120533 -1.119635 16.859793 -0.000003 -0.000001 0.000000 -0.189049 -1.324949 0.979403 -0.357887 1.142265 22.115999 -0.000004 0.000001 -0.000001 1.946041 0.242712 1.015182 -0.619908 3.110114 28.344752 -0.000001 0.000001 -0.000002 4.839315 -1.854578 -3.962247 -1.320410 7.677277 37.620194 0.000001 -0.000000 -0.000000 0.000003 0.000002 0.000002 0.000003 0.000001 0.000002 0.000003 0.000002 0.000002 0.000000 0.000001 -0.000001 -0.000001 0.000002 -0.000000 0.000000 0.000001 -0.000001 -0.000001 0.000002 0.000001 0.000002 0.000001 -0.000003 0.000002 0.000001 -0.000003 0.000002 0.000001 -0.000003 0.000002 0.000001 -0.000003 0.000002 0.000001 -0.000003 0.000002 0.000001 -0.000003 0.000002 0.000001 -0.000003 0.000000 -0.000000 0.000000 -0.000000 -0.000000 0.000000 
0.837887 56.678444 -3.668904 0.256930 -174.891720 -8.614006 0.000000 -0.000000 -0.000000 -91.254401 -23.999007 13.995396 124.408098 1.261870 2.319310 -27.459923 5.440251 -17.233460 0.000000 -0.000000 -0.000000 0.000000 0.000001 0.000001 -58.695873 17.323725 -29.501127 109.234334 5.895034 -0.111102 -28.911504 -10.562823 31.059995 0.000000 -0.000000 0.000000 0.000002 -0.000003 -0.000001 4.005259 3.139948 -2.596494 8.115209 6.854067 -4.611593 8.115217 6.854065 -4.611579 -0.477484 5.708263 1.192677 -0.477482 5.708250 1.192686 -0.000001 -0.000002 -0.000000 -0.477479 5.708259 1.192681 -0.477468 5.708279 1.192682 0.000001 -0.000001 -0.000000 -0.000001 -0.000002 0.000002 0.983007 -15.541320 -11.895344 2.965895 -0.975593 -32.060894 39.955575 -32.910587 -2.104587 12.745298 10.287312 2.740114 -10.172287 -9.653896 9.008304 2.321123 6.714516 2.170911 -0.000001 0.000000 -0.000001 -0.828608 -6.612116 -6.414576 -0.126834 0.207671 -21.714392 0.000002 0.000002 -0.000001 1.294499 -1.112995 -9.320917 -0.178454 -0.773444 -14.430105 0.000001 -0.000001 0.000001 -0.564475 2.847577 -6.300942 -0.505469 -2.597488 -30.199500 0.000000 -0.000006 0.000003 -0.248491 5.894469 -1.053933 -0.699236 -5.770499 -39.699296 -0.000000 -0.000005 -0.000002 -0.000002 0.000000 0.000000 -0.000002 0.000000 0.000000 -0.000003 0.000000 0.000000 0.000000 -0.000003 -0.000002 -0.000000 -0.000001 -0.000002 0.000000 -0.000003 -0.000002 0.000000 -0.000003 -0.000002 3.299768 -18.344997 12.110437 12.768933 -13.198103 60.241381 30.218253 39.297610 -4.016846 19.086211 -1.501096 11.733841 -7.041336 1.762628 -10.274686 -0.642367 -0.093878 -1.289326 0.000003 0.000001 -0.000001 -3.280170 2.555629 5.448237 0.120534 -1.119637 16.859791 -0.000001 -0.000002 -0.000000 -0.085940 -1.307465 0.995289 -0.357887 1.142266 22.116002 0.000001 0.000001 -0.000001 1.946325 0.242912 1.016085 -0.619906 3.110111 28.344751 -0.000001 0.000001 0.000001 4.839134 -1.854394 -3.961760 -1.320418 7.677273 37.620187 0.000001 0.000002 -0.000003 0.000001 -0.000000 -0.000002 0.000002 -0.000000 -0.000000 0.000001 -0.000000 -0.000002 0.000001 0.000002 0.000005 -0.000000 0.000002 0.000003 0.000001 0.000002 0.000005 0.000000 0.000002 0.000005 -0.000000 0.000000 0.000001 -0.000000 0.000000 0.000001 -0.000000 0.000000 0.000001 -0.000000 0.000000 0.000001 -0.000000 0.000000 0.000001 -0.000000 0.000000 0.000001 -0.000000 0.000000 0.000001 -0.000000 0.000000 -0.000001 0.000000 -0.000000 -0.000000 
0.838234 56.678108 -3.673777 0.231782 -174.895887 -8.624551 -0.000000 0.000000 -0.000000 -91.278846 -24.003330 14.011009 124.411800 1.249877 2.318501 -27.466986 5.434990 -17.221659 -0.000000 0.000002 -0.000000 -0.000002 0.000001 -0.000001 -58.713939 17.315650 -29.480159 109.235154 5.879286 -0.107522 -28.926114 -10.565422 31.055658 0.000000 -0.000000 0.000000 0.000001 0.000000 -0.000001 3.994399 3.139626 -2.598664 8.093580 6.853826 -4.615530 8.093577 6.853825 -4.615529 -0.485726 5.707120 1.195947 -0.485736 5.707123 1.195953 0.000003 0.000000 0.000001 -0.485733 5.707125 1.195950 -0.485726 5.707123 1.195943 -0.000003 -0.000000 -0.000001 0.000003 0.000000 -0.000000 0.984359 -15.557359 -11.893244 2.993945 -0.936739 -32.027754 39.996980 -32.956018 -2.104876 12.752487 10.324098 2.750441 -10.172768 -9.652539 9.008918 2.321121 6.714516 2.170912 0.000003 -0.000001 0.000001 -0.833423 -6.640644 -6.410813 -0.126831 0.207672 -21.714394 0.000002 -0.000000 -0.000002 1.294517 -1.112971 -9.320527 -0.178460 -0.773444 -14.430105 -0.000002 0.000001 -0.000000 -0.563581 2.847404 -6.299820 -0.505472 -2.597488 -30.199500 0.000001 -0.000003 0.000005 -0.248192 5.893914 -1.053437 -0.699239 -5.770498 -39.699293 0.000001 0.000000 -0.000000 0.000002 0.000000 0.000000 0.000002 0.000000 0.000000 0.000001 0.000000 0.000000 0.000001 0.000001 0.000003 0.000000 0.000001 0.000001 0.000001 0.000001 0.000003 0.000001 0.000002 0.000003 3.302540 -18.350060 12.097415 12.769790 -13.185343 60.268449 30.241325 39.257048 -4.029728 19.125785 -1.494288 11.725368 -7.048387 1.789078 -10.269490 -0.642368 -0.093878 -1.289328 0.000003 0.000004 0.000002 -3.217545 2.602798 5.419796 0.120531 -1.119634 16.859794 0.000006 0.000001 -0.000001 0.019117 -1.289084 1.011191 -0.357884 1.142265 22.116002 -0.000000 0.000000 0.000001 1.946588 0.243113 1.016869 -0.619903 3.110111 28.344747 -0.000003 -0.000001 -0.000001 4.838921 -1.854191 -3.961326 -1.320412 7.677271 37.620187 0.000001 0.000002 -0.000001 0.000001 -0.000000 -0.000001 0.000001 -0.000000 0.000001 0.000001 -0.000000 -0.000001 -0.000001 -0.000001 -0.000001 -0.000002 -0.000001 -0.000000 -0.000001 -0.000001 -0.000001 -0.000002 -0.000001 0.000001 -0.000001 -0.000000 0.000001 -0.000001 -0.000000 0.000001 -0.000001 -0.000000 0.000001 -0.000001 -0.000000 0.000001 -0.000001 -0.000000 0.000001 -0.000001 -0.000000 0.000001 -0.000001 -0.000000 0.000001 0.000000 0.000001 0.000000 -0.000000 0.000000 -0.000000 
0.836887 56.673630 -3.678645 0.205867 -174.887267 -8.640737 -0.000000 -0.000000 0.000001 -91.330120 -24.008772 14.020010 124.421895 1.229790 2.317382 -27.463835 5.420243 -17.194837 -0.000000 -0.000000 0.000000 0.000002 0.000000 0.000001 -58.726622 17.288448 -29.483225 109.238296 5.873210 -0.106209 -28.945614 -10.565641 31.044781 0.000000 0.000001 0.000000 -0.000003 -0.000001 0.000000 3.985209 3.139082 -2.597360 8.075133 6.853914 -4.612893 8.075132 6.853916 -4.612895 -0.483239 5.706975 1.193242 -0.483245 5.706991 1.193242 -0.000002 -0.000000 -0.000000 -0.483236 5.706980 1.193234 -0.483237 5.706977 1.193237 -0.000001 0.000003 -0.000000 -0.000002 -0.000000 0.000001 0.985486 -15.558947 -11.899325 3.003092 -0.913855 -31.997066 40.016552 -32.998215 -2.121964 12.751314 10.346639 2.756603 -10.173248 -9.651243 9.009510 2.321118 6.714514 2.170909 -0.000000 -0.000001 0.000000 -0.838433 -6.669851 -6.406888 -0.126834 0.207671 -21.714392 0.000000 0.000000 -0.000000 1.294501 -1.112946 -9.320133 -0.178461 -0.773445 -14.430105 -0.000001 -0.000000 -0.000001 -0.562645 2.847227 -6.298612 -0.505476 -2.597488 -30.199504 0.000000 -0.000002 0.000001 -0.247928 5.893306 -1.052763 -0.699235 -5.770496 -39.699300 -0.000005 -0.000002 0.000001 0.000003 0.000000 0.000000 0.000003 0.000000 0.000000 0.000002 -0.000000 0.000000 0.000000 -0.000001 -0.000003 -0.000000 -0.000002 -0.000003 0.000000 -0.000001 -0.000003 0.000000 -0.000001 -0.000003 3.306608 -18.371395 12.069627 12.769768 -13.150469 60.289206 30.289939 39.220278 -4.043915 19.162116 -1.502734 11.706700 -7.056311 1.818820 -10.263616 -0.642369 -0.093879 -1.289326 -0.000000 -0.000000 0.000003 -3.152908 2.648923 5.393191 0.120536 -1.119634 16.859794 0.000002 -0.000001 -0.000000 0.125420 -1.270045 1.027012 -0.357880 1.142264 22.116002 -0.000002 0.000000 0.000000 1.946795 0.243273 1.017463 -0.619907 3.110112 28.344756 -0.000001 -0.000001 -0.000002 4.838695 -1.853950 -3.961031 -1.320412 7.677276 37.620190 0.000003 -0.000000 -0.000001 0.000002 -0.000001 -0.000001 0.000002 -0.000002 -0.000004 0.000002 -0.000001 -0.000003 -0.000001 0.000000 -0.000000 -0.000002 0.000001 -0.000002 -0.000001 0.000000 -0.000000 -0.000002 0.000001 -0.000000 0.000001 0.000000 0.000001 0.000001 0.000000 0.000001 0.000001 0.000000 0.000001 0.000001 0.000000 0.000001 0.000001 0.000000 0.000001 0.000001 0.000000 0.000001 0.000001 0.000000 0.000001 -0.000000 0.000001 -0.000001 -0.000000 -0.000000 0.000001 
